<svg height="511pt" viewBox="1 -68 511.99965 511" width="511pt" xmlns="http://www.w3.org/2000/svg"><path fill="#FFFFFF" d="m96.871094 101.96875-4.097656-7.484375c-2.265626-4.132813-7.453126-5.652344-11.585938-3.386719-4.136719 2.265625-5.652344 7.453125-3.390625 11.589844l4.097656 7.484375c2.265625 4.132813 7.453125 5.652344 11.589844 3.386719 4.132813-2.265625 5.648437-7.453125 3.386719-11.589844zm0 0"/><path fill="#FFFFFF" d="m332.800781 222.367188c-4.714843 0-8.535156 3.820312-8.535156 8.53125 0 4.714843-3.820313 8.535156-8.53125 8.535156h-93.867187c-4.714844 0-8.535157-3.820313-8.535157-8.535156 0-4.710938-3.820312-8.53125-8.53125-8.53125-4.714843 0-8.535156 3.820312-8.535156 8.53125 0 14.140624 11.460937 25.601562 25.601563 25.601562h93.867187c14.136719 0 25.597656-11.460938 25.597656-25.601562 0-4.710938-3.820312-8.53125-8.53125-8.53125zm0 0"/><path fill="#FFFFFF" d="m503.464844 282.101562c-15.347656-.371093-30.574219 2.769532-44.523438 9.179688-11.894531 5.515625-24.898437 8.214844-38 7.886719-4.097656 0-7.679687-.207031-10.964844-.53125 10.476563-8.003907 16.644532-20.417969 16.691407-33.601563v-.09375c18.746093 14.1875 45.449219 10.496094 59.636719-8.253906 5.617187-7.421875 8.648437-16.480469 8.628906-25.789062v-34.132813c.003906-4.710937-3.816406-8.535156-8.527344-8.539063-1.027344 0-2.042969.183594-3 .542969l-22.605469 8.484375v-9.019531c0-23.566406-19.101562-42.667969-42.667969-42.667969-23.5625 0-42.664062 19.101563-42.664062 42.667969h-179.203125v-17.066406h25.601563c4.710937 0 8.53125-3.820313 8.53125-8.535157v-93.867187c-.039063-37.683594-30.582032-68.222656-68.265626-68.265625h-17.066406c-14.136718 0-25.601562 11.460938-25.601562 25.601562v6.960938c-2.222656 1.261719-4.351563 2.6875-6.363282 4.265625l-28.28125-31.402344c-6.46875-6.851562-17.269531-7.164062-24.125-.691406-5.347656 5.046875-6.859374 12.953125-3.753906 19.621094l20.480469 42.445312-44.484375 24.378907c-22.878906 12.179687-31.554688 40.601562-19.371094 63.480468 12.179688 22.882813 40.601563 31.554688 63.480469 19.375.324219-.171875.644531-.347656.964844-.527344l15.855469-8.679687v31.4375.1875c-10.714844 8-17.035157 20.574219-17.066407 33.945313v34.132812c.035157 13.441406 6.429688 26.070312 17.238281 34.058594-1.027343 0-1.972656.078125-3.058593.078125-13.089844.328125-26.082031-2.371094-37.960938-7.886719-13.9375-6.410156-29.152343-9.550781-44.484375-9.183594-4.714844 0-8.535156 3.824219-8.535156 8.535156 0 4.710938 3.820312 8.535157 8.535156 8.535157 13.089844-.332031 26.082032 2.367187 37.960938 7.882812 13.9375 6.410157 29.152344 9.550781 44.484375 9.183594 15.082031.375 30.054687-2.664063 43.796875-8.894531.964844-.207032 1.886718-.585938 2.71875-1.117188 11.3125-4.988281 23.59375-7.398437 35.953125-7.054687 13.097656-.332031 26.097656 2.367187 37.980469 7.882812 13.945312 6.410157 29.167968 9.550781 44.511718 9.183594 15.339844.367187 30.558594-2.773437 44.5-9.183594 11.882813-5.515625 24.878906-8.214843 37.972656-7.882812 13.105469-.332031 26.109376 2.367187 38 7.882812 13.949219 6.410157 29.179688 9.550781 44.527344 9.183594 15.347656.367187 30.578125-2.773437 44.527344-9.183594 11.890625-5.515625 24.894531-8.214843 37.996094-7.882812 4.714844 0 8.535156-3.820313 8.535156-8.535157 0-4.710937-3.820312-8.53125-8.535156-8.53125zm-110.933594-93.867187c0-14.140625 11.464844-25.601563 25.601562-25.601563 14.140626 0 25.601563 11.460938 25.601563 25.601563v21.332031c-.003906 4.714844 3.8125 8.535156 8.527344 8.539063 1.023437 0 2.039062-.183594 3-.542969l22.605469-8.480469v21.816407c.011718 14.140624-11.4375 25.613281-25.578126 25.625-10.128906.011718-19.3125-5.953126-23.421874-15.214844l-2.363282-12.046875c-.738281-19.609375-14.753906-36.191407-33.972656-40.175781zm-179.199219-34.132813h-17.066406v-22.070312l17.066406 17.066406zm0-29.132812-17.066406-17.066406v-27.070313l17.066406 17.066407zm0-56.203125v5l-28.023437-28.039063c-3.996094-5.125-8.933594-9.441406-14.546875-12.714843h-.09375v-6.910157c-.035157-2.71875-.507813-5.414062-1.402344-7.980468 25.253906 3.554687 44.039063 25.144531 44.066406 50.644531zm-76.800781-42.664063c0-4.714843 3.824219-8.535156 8.535156-8.535156 4.710938 0 8.535156 3.820313 8.535156 8.535156v17.066407h-17.070312zm-64.261719-8.613281 29.394531 32.640625c-1.023437 1.738282-1.949218 3.535156-2.773437 5.378906l-6.527344 3.582032zm-2.449219 141.550781c-14.472656 7.921876-32.621093 2.609376-40.542968-11.859374-7.917969-14.472657-2.609375-32.621094 11.863281-40.542969l68.5625-37.546875c2.0625-1.136719 3.554687-3.085938 4.113281-5.375 1.515625-3.472656 3.597656-6.667969 6.160156-9.453125 1.074219 3.535156 4.328126 5.957031 8.023438 5.972656h34.132812c3.558594-.011719 6.730469-2.25 7.9375-5.597656l2.421876 2.421875c4.335937 5.859375 6.6875 12.953125 6.707031 20.242187v110.933594h-68.265625v-37.335937c0-4.710938-3.820313-8.53125-8.535156-8.53125-1.710938.039062-3.367188.609374-4.742188 1.628906-.289062.070312-.574219.160156-.855469.265625zm339.78125 105.996094c0 14.136719-11.464843 25.597656-25.601562 25.597656-.601562.054688-1.199219.175782-1.773438.359376-13.75-6.226563-28.726562-9.265626-43.8125-8.890626-15.339843-.371093-30.558593 2.769532-44.5 9.179688-11.882812 5.515625-24.878906 8.214844-37.972656 7.886719-13.101562.328125-26.097656-2.371094-37.984375-7.886719-13.941406-6.410156-29.164062-9.550781-44.507812-9.179688-14.753907-.378906-29.40625 2.535157-42.890625 8.53125h-11.089844c-14.140625 0-25.601562-11.460937-25.601562-25.597656v-34.136718c0-14.136719 11.460937-25.597657 25.601562-25.597657h264.53125c14.140625 0 25.601562 11.460938 25.601562 25.597657zm0 0"/><path fill="#FFFFFF" d="m503.464844 341.832031c-15.347656-.367187-30.574219 2.773438-44.523438 9.183594-24.246094 10.511719-51.761718 10.511719-76.007812 0-13.945313-6.410156-29.171875-9.550781-44.519532-9.183594-15.339843-.367187-30.558593 2.773438-44.5 9.183594-11.882812 5.515625-24.878906 8.214844-37.972656 7.882813-13.101562.332031-26.097656-2.367188-37.984375-7.882813-13.941406-6.410156-29.167969-9.550781-44.507812-9.183594-15.339844-.367187-30.5625 2.773438-44.503907 9.183594-11.878906 5.515625-24.871093 8.214844-37.964843 7.882813-13.089844.332031-26.082031-2.367188-37.960938-7.882813-13.9375-6.410156-29.152343-9.550781-44.484375-9.183594-4.714844 0-8.535156 3.820313-8.535156 8.535157 0 4.710937 3.820312 8.53125 8.535156 8.53125 13.089844-.328126 26.082032 2.371093 37.960938 7.886718 13.9375 6.410156 29.152344 9.550782 44.484375 9.179688 15.339843.371094 30.558593-2.769532 44.496093-9.179688 11.878907-5.515625 24.875-8.214844 37.972657-7.886718 13.097656-.328126 26.09375 2.371093 37.980469 7.886718 13.945312 6.410156 29.167968 9.550782 44.511718 9.179688 15.339844.371094 30.558594-2.769532 44.5-9.179688 11.882813-5.515625 24.878906-8.214844 37.972656-7.886718 13.105469-.328126 26.109376 2.371093 38 7.886718 13.949219 6.410156 29.179688 9.550782 44.527344 9.179688 15.347656.371094 30.574219-2.769532 44.527344-9.179688 11.890625-5.515625 24.894531-8.214844 37.996094-7.886718 4.714844 0 8.535156-3.820313 8.535156-8.53125 0-4.714844-3.820312-8.535157-8.535156-8.535157zm0 0"/></svg>