<?xml version="1.0" encoding="iso-8859-1"?>
<!-- Generator: Adobe Illustrator 19.0.0, SVG Export Plug-In . SVG Version: 6.00 Build 0)  -->
<svg version="1.1" id="Layer_1" xmlns="http://www.w3.org/2000/svg" xmlns:xlink="http://www.w3.org/1999/xlink" x="0px" y="0px"
	 viewBox="0 0 511.999 511.999" style="enable-background:new 0 0 511.999 511.999;" xml:space="preserve">
<g>
	<g>
		<path fill="#FFFFFF" d="M509.672,244.111c-5.669-22.275-20.458-36.974-40.576-40.328c-2.768-0.462-5.569-0.696-8.323-0.696
			c-20.22,0-35.37,11.951-36.021,28.418c-0.158,3.995,1.978,7.73,5.501,9.62c3.523,1.891,7.817,1.603,11.057-0.74
			c1.709-1.236,4.53-2.004,7.36-2.004c4.563,0,12.219,1.679,12.219,12.925c0,3.739-2.742,9.302-10.298,9.303
			c-4.659,0.001-14.63-2.238-29.059-17.235c-3.333-3.464-7.469-8.237-12.257-13.764c-23.989-27.689-60.242-69.533-99.052-69.533
			c-25.155,0-44.346,11.115-54.225,18.402c-9.879-7.287-29.07-18.402-54.225-18.402c-38.81,0-75.063,41.844-99.052,69.533
			c-4.788,5.526-8.924,10.3-12.257,13.764c-14.427,14.995-24.4,17.234-29.061,17.235c-3.176,0-5.842-1.03-7.712-2.977
			c-1.642-1.712-2.585-4.017-2.585-6.326c0-11.245,7.656-12.925,12.219-12.925c2.83,0,5.651,0.768,7.36,2.004
			c1.817,1.313,3.964,1.98,6.121,1.98c0.01,0,0.02,0,0.03,0c5.765-0.005,10.437-4.68,10.437-10.447c0-0.429-0.026-0.852-0.076-1.268
			c-1.133-16.024-16.105-27.563-35.975-27.563c-2.754,0-5.555,0.234-8.323,0.696c-20.118,3.354-34.907,18.053-40.576,40.328
			c-6.731,26.454,0.71,64.379,27.958,85.682c12.917,10.094,35.197,22.127,67.996,22.127c45.666,0,98.696-22.93,157.718-68.184
			c59.018,45.25,112.046,68.181,157.717,68.184c0.004,0,0.006,0,0.01,0c32.789,0,55.07-12.033,67.989-22.128
			C508.962,308.491,516.404,270.566,509.672,244.111z M468.848,313.331c-10.33,8.073-28.275,17.697-55.12,17.696
			c-0.002,0-0.007,0-0.009,0c-42.525-0.003-93.413-23.127-151.25-68.727c-1.896-1.495-4.182-2.243-6.468-2.243
			s-4.572,0.748-6.468,2.243c-57.842,45.604-108.73,68.727-151.249,68.727c-26.851,0-44.8-9.623-55.129-17.695
			c-19.98-15.619-25.514-44.667-20.578-64.067c1.789-7.03,6.381-18.46,17.762-23.172c-6.036,5.554-10.123,13.879-10.123,25.214
			c0,7.649,3.063,15.229,8.405,20.793c5.82,6.065,13.912,9.403,22.786,9.403c9.749,0,25.318-4.102,44.117-23.641
			c3.711-3.857,8.012-8.822,12.992-14.57c20.194-23.309,53.994-62.32,83.26-62.32c27.744,0,46.682,18.293,46.838,18.445
			c4.08,4.08,10.694,4.08,14.774,0c0.185-0.185,18.771-18.445,46.838-18.445c29.268,0,63.066,39.012,83.26,62.32
			c4.98,5.748,9.28,10.711,12.992,14.57c18.801,19.539,34.365,23.641,44.114,23.641c0.001,0,0.004,0,0.005,0
			c19.523-0.003,31.189-15.356,31.189-30.197c0-11.336-4.086-19.66-10.122-25.214c11.381,4.711,15.973,16.141,17.761,23.171
			C494.359,268.664,488.826,297.712,468.848,313.331z"/>
	</g>
</g>
<g>
	<g>
		<path fill="#FFFFFF" d="M279.36,215.963c-3.553-4.546-10.119-5.35-14.666-1.797c-3.787,2.96-5.978,5.265-6.216,5.519
			c-3.947,4.208-3.754,10.84,0.456,14.787c2.021,1.895,4.591,2.835,7.155,2.835c2.775,0,5.541-1.102,7.593-3.29
			c0.014-0.015,1.393-1.446,3.88-3.39C282.109,227.074,282.913,220.508,279.36,215.963z"/>
	</g>
</g>
<g>
	<g>
		<path fill="#FFFFFF" d="M397.434,268.698c-2.573-2.851-5.794-6.816-9.524-11.406c-19.038-23.434-47.807-58.846-79.401-58.846
			c-3.413,0-6.862,0.273-10.25,0.809c-5.699,0.904-9.586,6.255-8.684,11.954c0.904,5.699,6.25,9.587,11.954,8.683
			c2.31-0.367,4.657-0.552,6.98-0.552c21.65,0,47.649,32.005,63.184,51.126c3.912,4.816,7.291,8.975,10.228,12.23
			c2.063,2.287,4.906,3.449,7.76,3.449c2.494,0,4.997-0.888,6.994-2.69C400.96,279.588,401.3,272.982,397.434,268.698z"/>
	</g>
</g>
<g>
</g>
<g>
</g>
<g>
</g>
<g>
</g>
<g>
</g>
<g>
</g>
<g>
</g>
<g>
</g>
<g>
</g>
<g>
</g>
<g>
</g>
<g>
</g>
<g>
</g>
<g>
</g>
<g>
</g>
</svg>
